<svg width="150" height="45" viewBox="0 0 150 45" fill="none" xmlns="http://www.w3.org/2000/svg">
<path d="M89.8125 39.9375H6V5.06249H30L33 1.50001L31.6875 0H19.3125L18.375 2.625L9 0H1.875L1.3125 2.0625L1.5 6.75L0.9375 7.6875V25.3125L2.625 26.8125L1.5 33L1.875 36.75L0.9375 39.9375V45H18.9375L22.6875 43.5L24.375 45H32.0625L39.75 43.6875L48.1875 45H63L68.4375 43.5L73.125 45H78L89.0625 40.6875L89.8125 39.9375Z" fill="white"/>
<path d="M35.4373 20.4375H30.5623V8.81249H26.2498V36H30.5623V24.375H35.4373V36H39.7498V8.625H35.4373V20.4375ZM115.312 8.625H112.125V12.375L116.062 9L115.312 8.625ZM102.187 22.875V8.625H97.8748V29.8125L98.8123 28.6875L102.187 22.875ZM66.9373 12.5625L66.3748 8.625H62.8123L64.6873 11.4375L66.9373 12.5625ZM18.7498 29.625C18.7498 30 18.7498 30.375 18.5623 30.75C18.3748 31.125 18.3748 31.5 17.9998 31.6875C17.6248 32.0625 17.0623 32.25 16.3123 32.25C15.5623 32.25 15.1873 32.0625 14.6248 31.6875C14.4373 31.3125 14.2498 31.125 14.0623 30.75C13.8748 30.375 13.8748 30 13.8748 29.625V26.25L10.1248 20.0625V29.4375C9.93726 31.3125 10.4998 33 11.8123 34.5C13.1248 35.625 14.8123 36.1875 16.4998 36.1875C18.1873 36.1875 19.8748 35.625 21.1873 34.5C22.3123 33 22.8748 31.3125 22.8748 29.4375V25.875H18.7498V29.625ZM16.4998 8.4375C15.5623 8.4375 14.8123 8.43749 13.8748 8.81249C13.1248 9.18749 12.3748 9.5625 11.6248 10.3125C10.4998 11.8125 9.93726 13.5 9.93726 15.375V15.9375L10.8748 20.625L13.3123 24L14.0623 23.4375V15C14.0623 14.25 14.2498 13.5 14.6248 12.9375C14.9998 12.5625 15.5623 12.375 16.3123 12.375C17.0623 12.375 17.4373 12.5625 17.9998 12.9375C18.3748 13.5 18.7498 14.25 18.5623 15V18H22.6873V15.375C22.8748 13.5 22.3123 11.8125 20.9998 10.3125C20.4373 9.75 19.6873 9.1875 18.7498 9C18.1873 8.4375 17.2498 8.25 16.4998 8.4375ZM112.875 12.9375L111.937 18.375V36H123.562V32.0625H116.25V24H122.062V20.0625H116.25V12.5625H123.562V8.625H117L112.875 12.9375ZM131.25 33.1875L128.625 30L127.125 25.875V36H131.437L131.062 34.875L131.25 33.1875ZM139.875 17.0625V15C140.062 13.3125 139.5 11.625 138.375 10.3125C137.625 9.75 136.875 9.375 136.125 9C135.375 8.8125 134.437 8.625 133.5 8.625H127.125V20.625L127.687 22.125L127.5 23.8125L129 29.8125L131.437 31.6875V24.9375H133.5C133.875 24.9375 134.062 24.9375 134.25 25.125C134.437 25.125 134.812 25.3125 135 25.5C135.375 26.0625 135.562 26.8125 135.562 27.5625V36.1875H139.875V28.875C140.062 27 139.5 25.3125 138.375 23.8125C138 23.4375 137.625 23.0625 137.062 22.875C138.937 21.75 139.875 19.875 139.875 17.0625ZM135.75 18.1875C135.75 18.5625 135.75 18.9375 135.562 19.3125C135.375 19.6875 135.187 20.0625 135 20.4375C134.437 20.8125 133.875 21.1875 133.125 21H131.437V12.5625H133.5C133.875 12.5625 134.062 12.5625 134.437 12.75C134.812 12.9375 135 13.125 135.187 13.3125C135.562 13.875 135.75 14.625 135.75 15.375V18.1875ZM47.0623 8.625L42.7498 35.8125H46.6873L47.4373 30.9375H52.6873L53.4373 35.8125H57.7498L53.4373 8.625H47.0623ZM47.8123 27.375L49.8748 13.5L51.9373 27.375H47.8123ZM69.5623 28.125L67.6873 17.0625L65.9998 13.125L64.1248 12L60.1873 8.81249V36H63.9373V16.6875L67.1248 36H71.2498L74.2498 16.5V36H78.3748V8.625H72.3748L69.5623 28.125ZM88.6873 8.625H82.3123V35.8125H86.6248V25.5H88.6873C89.6248 25.5 90.3748 25.5 91.3123 25.125C92.0623 24.75 92.8123 24.375 93.5623 23.8125C94.6873 22.3125 95.2498 20.625 95.0623 18.75V15.1875C95.2498 13.3125 94.6873 11.625 93.5623 10.125C92.9998 9.5625 92.2498 8.99999 91.3123 8.81249C90.3748 8.62499 89.4373 8.625 88.6873 8.625ZM90.7498 19.3125C90.7498 20.0625 90.5623 20.8125 90.1873 21.375C89.9998 21.5625 89.8123 21.75 89.4373 21.75C89.2498 21.75 88.8748 21.9375 88.6873 21.9375H86.6248V12.75H88.6873C89.0623 12.75 89.2498 12.75 89.4373 12.9375C89.6248 12.9375 89.9998 13.125 90.1873 13.3125C90.5623 13.875 90.7498 14.625 90.7498 15.375V19.3125ZM102.187 25.125H101.625L98.8123 30.375L98.6248 32.8125L98.0623 35.8125H109.5V31.875H102.375L102.187 25.125Z" fill="white"/>
<path d="M149.062 0H131.062L122.062 2.24999L118.875 0H113.625L114 2.625L111.187 0.9375L104.625 0H102.187H95.4372L93.9372 1.50001L89.4372 0H79.6872H75.9372H72.7497L68.2497 0.562506L65.2497 1.50001L58.8747 0H56.2497H47.9997H42.3747C42.1872 0 34.8747 1.50001 34.8747 1.50001L30.5622 5.06249H143.812V39.9375H90.7497L88.6872 42.5625L86.2497 42.75L84.3747 45H125.062L130.875 43.5L132.937 45H144.187L149.062 42V37.6875L147.75 33.75L149.062 23.0625V6.93749L147.75 3.9375L149.062 0Z" fill="white"/>
</svg>
