<svg width="20" height="20" viewBox="0 0 20 20" fill="none" xmlns="http://www.w3.org/2000/svg">
<path d="M2.10894 9.8612L12.8835 5.42189C13.9471 4.95947 17.554 3.4797 17.554 3.4797C17.554 3.4797 19.2188 2.8323 19.08 4.40455C19.0338 5.05195 18.6639 7.31785 18.2939 9.76871L17.1378 17.0288C17.1378 17.0288 17.0454 18.0924 16.2592 18.2774C15.4731 18.4624 14.1783 17.63 13.9471 17.445C13.7621 17.3063 10.4789 15.2254 9.27658 14.208C8.95288 13.9306 8.58293 13.3756 9.32282 12.7283C10.9876 11.2022 12.976 9.30629 14.1783 8.10397C14.7332 7.54906 15.2881 6.25426 12.976 7.82652L6.45577 12.2196C6.45577 12.2196 5.71588 12.682 4.3286 12.2658C2.94132 11.8496 1.32282 11.2947 1.32282 11.2947C1.32282 11.2947 0.212991 10.6011 2.10894 9.8612V9.8612Z" fill="white"/>
</svg>
